<svg xmlns="http://www.w3.org/2000/svg" viewBox="0 0 220 180" fill="none">
  <path
    d="M204 83c-13 8-30 11-44 9 5 12 4 25-3 37-10 16-30 27-50 27-28 0-51-22-51-50 0-29 23-51 52-51 8 0 15 2 22 4-5-13-5-27 1-40 8-15 22-25 38-29-7 13-8 30-1 45 8 17 24 28 45 33-6 13-17 29-34 41 10 1 18 0 25-3z"
    fill="#D26D63"
    fill-opacity="0.9"
  />
  <path
    d="M114 49c-10-10-14-24-10-38M116 98c10-9 26-12 39-9M95 79c-7 1-14 5-19 11M70 127c11 18 35 28 57 22"
    stroke="#B54E45"
    stroke-width="6"
    stroke-linecap="round"
    stroke-linejoin="round"
    stroke-opacity="0.75"
  />
  <circle cx="171" cy="73" r="4.5" fill="#B54E45" fill-opacity="0.85" />
</svg>
