<svg xmlns="http://www.w3.org/2000/svg" viewBox="0 0 64 64" fill="none">
  <rect width="64" height="64" rx="14" fill="#FFF6F2" />
  <path
    d="M53 31c-4 3-9 4-13 3 1 4 1 7-1 10-3 5-8 8-14 8-8 0-15-6-15-15s7-15 15-15c2 0 4 1 6 1-1-4-1-8 1-11 2-4 6-7 12-8-2 4-2 8 0 12 2 5 7 9 14 10-2 4-5 8-10 11 2 0 4 0 5-1z"
    fill="#FFFFFF"
    stroke="#E6D2C9"
    stroke-width="1.4"
    stroke-linejoin="round"
  />
  <path
    d="M16 16c3 0 5 2 5 5 0-3 2-5 5-5-3 0-5-2-5-5 0 3-2 5-5 5z"
    fill="#F0907D"
  />
  <circle cx="44.5" cy="28" r="1.8" fill="#E9DAD3" />
</svg>
