<svg xmlns="http://www.w3.org/2000/svg" viewBox="0 0 320 220" fill="none">
  <rect width="320" height="220" rx="28" fill="#FFF7F2" />
  <path d="M258 108c-16 10-36 13-52 11 5 14 4 29-4 42-12 19-34 31-57 31-32 0-58-26-58-58 0-33 26-59 59-59 9 0 18 2 26 5-5-15-5-31 2-46 9-18 25-30 45-35-8 15-9 34-2 51 9 19 28 32 52 37-7 15-20 33-41 47 12 2 22 1 30-3z" fill="#fff" />
  <path d="M130 80c-10-10-15-25-12-40M133 126c12-10 29-14 43-11M110 106c-8 1-15 5-21 12M82 157c12 20 40 31 63 25" stroke="#E6C9BC" stroke-width="6" stroke-linecap="round" />
  <path d="M76 41c10 0 17 8 17 18 0-10 8-18 18-18-10 0-18-8-18-18 0 10-7 18-17 18z" fill="#F4B37A" />
  <path d="M242 53c8 0 14 6 14 14 0-8 6-14 14-14-8 0-14-6-14-14 0 8-6 14-14 14z" fill="#F08F7A" />
</svg>
